<svg id="Layer_2" data-name="Layer 2" xmlns="http://www.w3.org/2000/svg" viewBox="0 0 401.97 380.58"><defs><style>.cls-1{stroke:#000;stroke-miterlimit:10;}</style></defs><path class="cls-1" d="M336.79,215.2H291.11c-7.72,8.41-2.85,45.85,29.2,77.95C265.9,319.2,308.57,465.15,445,444Zm-9.66,26.05L338,267.72C320.52,262.69,314.21,238.28,327.13,241.25Zm28.47,70.08,44.31,105.44C318.13,397.26,299.83,318.89,355.6,311.33Z" transform="translate(-43.75 -67.09)"/><path class="cls-1" d="M323.52,447.18H270.59l-3.08-98.54C275.61,389.93,293,424.71,323.52,447.18Z" transform="translate(-43.75 -67.09)"/><path class="cls-1" d="M244.72,183.66c-81.31,0-91.35,19.09-91.35-24.72a91.35,91.35,0,0,1,91.35-91.35h0a91.34,91.34,0,0,1,91.34,91.35c0,43.81-10.07,24.72-91.37,24.72Z" transform="translate(-43.75 -67.09)"/><path class="cls-1" d="M169.15,293.15c32.06-32.1,36.93-69.54,29.2-77.95H152.68L44.49,444C180.9,465.15,223.56,319.2,169.15,293.15Zm-6.81-51.9c12.92-3,6.61,21.44-10.88,26.47ZM89.56,416.77l44.31-105.44C189.64,318.89,171.33,397.26,89.56,416.77Z" transform="translate(-43.75 -67.09)"/><path d="M244.73,358.55a.29.29,0,0,1-.28-.25c-3.92-38-12.66-85.82-26-142.24a.28.28,0,0,1,.06-.25.27.27,0,0,1,.22-.11l26,0,26,0a.29.29,0,0,1,.22.11.31.31,0,0,1,.05.25c-13.31,56.42-22,104.28-26,142.24A.29.29,0,0,1,244.73,358.55Z" transform="translate(-43.75 -67.09)"/><path d="M244.73,216.15h0l25.7,0c-13,55.32-21.68,102.41-25.7,140-4-37.59-12.65-84.68-25.7-140l25.7,0m0-1h0l-26,0a.78.78,0,0,0-.76,1C232.94,279.5,240.54,325.26,244,358.35a.79.79,0,0,0,.78.7.77.77,0,0,0,.78-.7c3.42-33.09,11-78.85,26-142.18a.79.79,0,0,0-.76-1l-26,0Z" transform="translate(-43.75 -67.09)"/><path class="cls-1" d="M166,447.18h52.93L222,345.64C213.85,386.93,196.51,421.71,166,447.18Z" transform="translate(-43.75 -67.09)"/></svg>